# xmcd
#
# Track frame offsets: 
#        150
#        14873
#        32547
#        50022
#        67093
#        85281
#        107356
#        129566
#        149408
#        167929
#        190289
#        211408
#        229678
#        253200
#        266254
#
# Disc length: 3755 seconds
#
# Revision: 2
# Processed by: cddbd v1.5.2PL0 Copyright (c) Steve Scherf et al.
# Submitted via: ExactAudioCopy v0.99pb1
#
DISCID=df0ea90f
DTITLE=Various Artist - Moreorless Jazz Three
DYEAR=2006
DGENRE=Jazz
TTITLE0=Rosa Passos - Wave
TTITLE1=Viktoria Tolstoy - Upside Out
TTITLE2=San Glaser - Let There Be You
TTITLE3=Udo Schild - Autumn In June
TTITLE4=Sara Gazarek - Yours
TTITLE5=Jim Tomlinson - Outra Vez
TTITLE6=Matthias Vogt Trio feat. Roger Cicero - The Look Into Your Eye
TTITLE6=s
TTITLE7=Z Star - Slow Dancin'
TTITLE8=Jeff Cascaro - Waiting
TTITLE9=Carmen Cuesta - You Still Don't Know Me
TTITLE10=Anna Maria Jopek - Don't Speak
TTITLE11=Kitty Hoff und Foret-Noire - Weist Du Noch
TTITLE12=Jacqui Naylor - Losing My Religion
TTITLE13=Rigmor Gustafsson - After The Rain
TTITLE14=Andreas Schnermann and Inga Luhning - Cocaine Lil And Morphine 
TTITLE14=Sue
EXTD=
EXTT0=
EXTT1=
EXTT2=
EXTT3=
EXTT4=
EXTT5=
EXTT6=
EXTT7=
EXTT8=
EXTT9=
EXTT10=
EXTT11=
EXTT12=
EXTT13=
EXTT14=
PLAYORDER=
